<svg height="210" width="210" xmlns="http://www.w3.org/2000/svg">

    <!-- Black background -->
    <rect width="100%" height="100%" fill="black"/>

    <!-- Central circle (same size as surrounding circles) -->
    <circle r="18" cx="100" cy="100" fill="gray"/>
    <circle r="5" cx="100" cy="100" fill="white"/>

    <!-- Surrounding circles -->
    <circle r="15" cx="70" cy="45" fill="white"/>
    <circle r="15" cx="130" cy="45" fill="white"/>

    <circle r="15" cx="40" cy="100" fill="white"/>
    <circle r="15" cx="160" cy="100" fill="white"/>

    <circle r="15" cx="70" cy="155" fill="white"/>
    <circle r="15" cx="130" cy="155" fill="white"/>

    <!-- Small dots -->
    <circle r="3" cx="85" cy="70" fill="gray"/>
    <circle r="3" cx="115" cy="70" fill="gray"/>
    <circle r="3" cx="85" cy="130" fill="gray"/>
    <circle r="3" cx="115" cy="130" fill="gray"/>
    <circle r="3" cx="70" cy="100" fill="gray"/>
    <circle r="3" cx="130" cy="100" fill="gray"/>


    <!-- Small dots -->
    <circle r="5" cx="100" cy="30" fill="gray"/>

    <circle r="5" cx="45" cy="67" fill="gray"/>
    <circle r="5" cx="155" cy="67" fill="gray"/>

    <circle r="5" cx="45" cy="133" fill="gray"/>
    <circle r="5" cx="155" cy="133" fill="gray"/>

    <circle r="5" cx="100" cy="170" fill="gray"/>


    <!-- Text -->
    <text x="100" y="203" font-family="Sans" font-size="25" text-anchor="middle" fill="white">teleoperator</text>

    <!-- Central circle  -->
    <circle r="8" cx="78" cy="196" fill="gray"/>
    <circle r="5" cx="78" cy="196" fill="white"/>


    <!-- Central circle  -->
       <!--
    <circle r="8" cx="160" cy="196" fill="gray"/>
    <circle r="5" cx="160" cy="196" fill="white"/>
-->
</svg>
