
<svg height="200" width="200" xmlns="http://www.w3.org/2000/svg">

    <!-- Black background -->
    <rect width="100%" height="100%" fill="white"/>

    <!-- Central circle (same size as surrounding circles) -->
    <circle r="18" cx="100" cy="100" fill="gray"/>
    <circle r="5" cx="100" cy="100" fill="black"/>

    <!-- Surrounding circles -->
    <circle r="15" cx="70" cy="45" fill="black"/>
    <circle r="15" cx="130" cy="45" fill="black"/>

    <circle r="15" cx="40" cy="100" fill="black"/>
    <circle r="15" cx="160" cy="100" fill="black"/>

    <circle r="15" cx="70" cy="155" fill="black"/>
    <circle r="15" cx="130" cy="155" fill="black"/>

    <!-- Small dots -->
    <circle r="3" cx="85" cy="70" fill="gray"/>
    <circle r="3" cx="115" cy="70" fill="gray"/>
    <circle r="3" cx="85" cy="130" fill="gray"/>
    <circle r="3" cx="115" cy="130" fill="gray"/>
    <circle r="3" cx="70" cy="100" fill="gray"/>
    <circle r="3" cx="130" cy="100" fill="gray"/>


    <!-- Small dots -->
    <circle r="5" cx="100" cy="30" fill="gray"/>

    <circle r="5" cx="45" cy="67" fill="gray"/>
    <circle r="5" cx="155" cy="67" fill="gray"/>

    <circle r="5" cx="45" cy="133" fill="gray"/>
    <circle r="5" cx="155" cy="133" fill="gray"/>

    <circle r="5" cx="100" cy="170" fill="gray"/>


</svg>
